<svg width="46" height="45" viewBox="0 0 46 45" fill="none" xmlns="http://www.w3.org/2000/svg">
<path d="M43.6278 13.3107C42.7742 11.4198 41.6445 9.65756 40.273 8.07817C38.2458 5.67372 35.716 3.71243 32.8499 2.32339C29.9839 0.934377 26.8466 0.149096 23.6447 0.0192423C20.4429 -0.110611 17.2489 0.417904 14.273 1.57003C11.2972 2.72214 8.60696 4.47173 6.3794 6.70363C4.15182 8.93552 2.43741 11.5991 1.34902 14.5192C0.260627 17.4391 -0.177096 20.5494 0.0646872 23.645C0.306487 26.7408 1.22227 29.7518 2.75181 32.4798C4.28135 35.208 6.38995 37.5914 8.93882 39.4732C10.5743 40.7048 12.3815 41.7059 14.3065 42.4469C17.0055 43.5184 19.8942 44.0703 22.8111 44.0719C28.832 44.0591 34.602 41.734 38.8564 37.6065C43.1107 33.479 45.5022 27.8859 45.5065 22.0532C45.5109 19.0445 44.8713 16.0676 43.6278 13.3107ZM22.7943 4.4869C25.4137 4.48664 28.0015 5.04126 30.3762 6.1119C29.7972 6.35431 29.1883 6.52361 28.5646 6.61567C26.5125 6.90344 24.6114 7.82641 23.1452 9.24682C21.679 10.6672 20.7262 12.5089 20.4291 14.4969C20.2988 15.6118 19.7753 16.6491 18.9471 17.4336C18.119 18.2182 17.0369 18.7018 15.8833 18.8032C13.8312 19.091 11.9301 20.014 10.4639 21.4344C8.99767 22.8548 8.04491 24.6964 7.74785 26.6844C7.64728 27.7446 7.18037 28.7409 6.42269 29.5119C5.1154 26.836 4.52813 23.8831 4.71553 20.9282C4.90293 17.9733 5.85891 15.1123 7.49451 12.6114C9.1301 10.1107 11.3922 8.05137 14.0702 6.62516C16.7482 5.19895 19.7551 4.45221 22.8111 4.4544L22.7943 4.4869ZM8.92205 33.4282C9.12334 33.2494 9.32463 33.0869 9.52592 32.8919C11.0182 31.4904 11.9761 29.6401 12.2433 27.6432C12.3517 26.5206 12.869 25.4722 13.7027 24.6857C14.505 23.8767 15.5847 23.3797 16.7388 23.2882C18.791 23.0004 20.692 22.0774 22.1582 20.657C23.6244 19.2366 24.5772 17.3949 24.8743 15.4069C24.9469 14.2329 25.4669 13.1267 26.3336 12.3032C27.1557 11.5099 28.2457 11.031 29.4033 10.9544C31.2886 10.7031 33.0468 9.8912 34.4356 8.63067C36.0169 9.90153 37.3565 11.4304 38.3943 13.1482C38.3305 13.2315 38.2574 13.3079 38.1762 13.3757C37.3756 14.1917 36.2972 14.6997 35.1401 14.8057C33.0858 15.0884 31.1819 16.0098 29.7147 17.431C28.2476 18.8524 27.2965 20.6968 27.0046 22.6869C26.8864 23.8056 26.3726 24.8503 25.5503 25.6439C24.7278 26.4377 23.6476 26.9316 22.4924 27.0419C20.4342 27.3274 18.5261 28.2486 17.0513 29.6684C15.5767 31.0883 14.614 32.9311 14.3065 34.9232C14.2163 35.7173 13.9347 36.4799 13.4846 37.1494C11.7636 36.1595 10.2222 34.9024 8.92205 33.4282ZM22.7943 39.7007C21.0922 39.7025 19.3982 39.4727 17.762 39.0182C18.3218 38.0074 18.6856 36.9058 18.8356 35.7682C18.9532 34.652 19.4646 33.6092 20.2835 32.8159C21.1024 32.0225 22.1788 31.5271 23.3311 31.4132C25.3862 31.1286 27.2911 30.2071 28.7607 28.7864C30.2301 27.3658 31.1854 25.5222 31.4833 23.5319C31.6009 22.4157 32.1124 21.3729 32.9313 20.5796C33.7502 19.7863 34.8266 19.2908 35.9788 19.1769C37.5254 18.9821 38.9995 18.4242 40.273 17.5519C40.9802 20.1485 41.0639 22.8675 40.5179 25.5003C39.9719 28.1331 38.8105 30.6099 37.123 32.7405C35.4355 34.8708 33.2668 36.5987 30.7828 37.7911C28.2991 38.9836 25.5664 39.609 22.7943 39.6194V39.7007Z" fill="#E90808"/>
</svg>
